<?xml version="1.0" encoding="utf-8"?>
<!-- Generator: Adobe Illustrator 25.3.1, SVG Export Plug-In . SVG Version: 6.00 Build 0)  -->
<svg version="1.1" id="Слой_1" xmlns="http://www.w3.org/2000/svg" xmlns:xlink="http://www.w3.org/1999/xlink" x="0px" y="0px"
	 viewBox="0 0 841.9 268.7" style="enable-background:new 0 0 841.9 268.7;" xml:space="preserve" fill="white">
<g>
	<polygon points="85.1,74.1 57.8,74.1 57.8,44.4 37.2,44.4 37.2,120.4 57.8,120.4 57.8,90.7 85.1,90.7 85.1,120.4 105.7,120.4 
		105.7,44.4 85.1,44.4 	"/>
	<polygon points="115.5,120.4 299.2,120.4 299.2,103.8 136.1,103.8 136.1,90.7 299.3,90.7 299.3,74.1 136.1,74.1 136.1,61.1 
		299.3,61.1 299.3,44.4 115.5,44.4 	"/>
	<polygon points="362.9,44.4 309.6,44.4 309.6,120.4 330.2,120.4 330.2,61.1 362.9,61.1 	"/>
	<path d="M383.5,44.4l-25.1,75.9h22.2l4.4-14.5h25l4.4,14.5h22.2l-25.1-75.9H383.5z M389.8,90.4l7.6-25.1h0.6l7.6,25.1H389.8z"/>
	<path d="M489.1,73c-4.8-2.1-10.4-3.1-16.7-3.1h-7.7v-8.9h32.8V44.4H444v75.9h28.3c6.4,0,12-1.1,16.7-3.2c4.8-2.2,8.5-5.1,11.2-9
		c2.7-3.8,4-8.3,4-13.3s-1.3-9.4-4-13.2C497.6,78,493.9,75.1,489.1,73z M482.5,99.6c-0.9,1.4-2.2,2.6-3.9,3.4
		c-1.7,0.8-3.8,1.2-6.2,1.2h-7.7V85.7h7.7c3.7,0,6.5,0.9,8.5,2.6c2,1.7,2.9,3.9,2.9,6.5C483.8,96.5,483.3,98.2,482.5,99.6z"/>
	<path d="M534,44.4L509,120.4h22.2l4.4-14.5h25l4.4,14.5h22.2l-25.1-75.9H534z M540.3,90.4l7.6-25.1h0.6l7.6,25.1H540.3z"/>
	<path d="M615.1,97.8h11.4c5.8,0,10.8-1.1,15.2-3.2c4.3-2.2,7.7-5.2,10.1-9.2c2.4-4,3.6-8.7,3.6-14.1c0-5.4-1.2-10.1-3.5-14.1
		c-2.3-4-5.6-7.2-9.9-9.4s-9.2-3.3-14.8-3.3h-32.8v75.9h20.6V97.8z M622.4,60.9c2.4,0,4.5,0.4,6.2,1.2c1.7,0.8,3,2,4,3.6
		c0.9,1.5,1.4,3.4,1.4,5.6c0,2.1-0.5,4-1.4,5.6c-0.9,1.6-2.2,2.8-4,3.7c-1.7,0.9-3.8,1.3-6.2,1.3h-7.3V60.9H622.4z"/>
	<polygon points="684.2,84.2 683.7,84.2 683.7,44.4 663,44.4 663,120.4 680.2,120.4 707.7,80.5 708.1,80.5 708.1,120.4 728.7,120.4 
		728.7,44.4 711.2,44.4 	"/>
	<polygon points="759.3,120.4 779.6,120.4 779.6,61.1 802.4,61.1 802.4,44.4 736.4,44.4 736.4,61.1 759.3,61.1 	"/>
	<polygon points="597.2,165.4 620,165.4 620,224.7 640.4,224.7 640.4,165.4 663.2,165.4 663.2,148.8 597.2,148.8 	"/>
	<polygon points="670.9,224.7 691.5,224.7 691.5,165.4 724.3,165.4 724.3,148.8 670.9,148.8 	"/>
	<polygon points="774.1,185.3 803,148.8 777.1,148.8 755.3,177.4 752.6,177.4 752.6,148.8 732,148.8 732,224.7 752.6,224.7 
		752.6,194.1 755.5,194.1 778.8,224.7 804.6,224.7 	"/>
</g>
</svg>
