<?xml version="1.0" encoding="utf-8"?>
<!-- Generator: Adobe Illustrator 25.3.1, SVG Export Plug-In . SVG Version: 6.00 Build 0)  -->
<svg version="1.1" id="Слой_1" xmlns="http://www.w3.org/2000/svg" xmlns:xlink="http://www.w3.org/1999/xlink" x="0px" y="0px"
	 viewBox="0 0 841.9 268.7" style="enable-background:new 0 0 841.9 268.7;" xml:space="preserve" fill="white">
<g>
	<polygon points="83.2,126 55,126 55,95.5 33.8,95.5 33.8,173.7 55,173.7 55,143.2 83.2,143.2 83.2,173.7 104.4,173.7 104.4,95.5 
		83.2,95.5 	"/>
	<polygon points="113.4,173.7 296.7,173.7 296.7,156.6 134.7,156.6 134.7,143.2 296.8,143.2 296.8,126 134.7,126 134.7,112.6 
		296.8,112.6 296.8,95.5 113.4,95.5 	"/>
	<polygon points="361.3,95.5 306.3,95.5 306.3,173.7 327.5,173.7 327.5,112.6 361.3,112.6 	"/>
	<path d="M381.5,95.5l-25.8,78.3h22.9l4.5-15h25.8l4.5,15h22.9l-25.8-78.3H381.5z M387.9,142.9l7.8-25.8h0.6l7.8,25.8H387.9z"/>
	<path d="M489.3,124.9c-4.9-2.1-10.7-3.2-17.3-3.2h-8v-9.2h33.8V95.5h-55v78.3H472c6.6,0,12.3-1.1,17.3-3.3
		c4.9-2.2,8.8-5.3,11.5-9.3c2.7-3.9,4.1-8.5,4.1-13.7c0-5.2-1.4-9.7-4.1-13.6C498,130,494.2,127,489.3,124.9z M482.4,152.3
		c-0.9,1.5-2.2,2.6-4,3.5c-1.7,0.8-3.9,1.3-6.4,1.3h-8V138h8c3.8,0,6.7,0.9,8.8,2.7c2,1.8,3,4,3,6.7
		C483.8,149.2,483.3,150.9,482.4,152.3z"/>
	<path d="M534.5,95.5l-25.8,78.3h22.9l4.5-15H562l4.5,15h22.9l-25.8-78.3H534.5z M541,142.9l7.8-25.8h0.6l7.8,25.8H541z"/>
	<path d="M644.9,98.9c-4.4-2.3-9.4-3.4-15.3-3.4h-33.8v78.3h21.3v-23.2h11.8c6,0,11.2-1.1,15.7-3.3c4.5-2.2,8-5.4,10.4-9.5
		c2.5-4.1,3.7-9,3.7-14.6c0-5.6-1.2-10.4-3.6-14.6C652.6,104.4,649.2,101.2,644.9,98.9z M635.1,128.9c-1,1.6-2.3,2.9-4.1,3.8
		c-1.8,0.9-3.9,1.3-6.4,1.3h-7.5v-21.6h7.5c2.5,0,4.6,0.4,6.4,1.3c1.8,0.9,3.1,2.1,4.1,3.7c1,1.6,1.4,3.5,1.4,5.8
		C636.5,125.3,636,127.3,635.1,128.9z"/>
	<polygon points="687.3,136.4 686.7,136.4 686.7,95.5 665.4,95.5 665.4,173.7 683.1,173.7 711.4,132.6 711.9,132.6 711.9,173.7 
		733.1,173.7 733.1,95.5 715.1,95.5 	"/>
	<polygon points="740,95.5 740,112.6 763.6,112.6 763.6,173.7 784.5,173.7 784.5,112.6 808.1,112.6 808.1,95.5 	"/>
</g>
</svg>
